<?xml version="1.0" ?><!DOCTYPE svg  PUBLIC '-//W3C//DTD SVG 1.1//EN'  'http://www.w3.org/Graphics/SVG/1.1/DTD/svg11.dtd'><svg enable-background="new 0 0 50 50" height="50px" id="Layer_1" version="1.1" viewBox="0 0 50 50" width="50px" xml:space="preserve" xmlns="http://www.w3.org/2000/svg" xmlns:xlink="http://www.w3.org/1999/xlink"><g><g><path d="M50,45.233C50,47.866,47.866,50,45.233,50H4.767C2.134,50,0,47.866,0,45.233V4.767     C0,2.134,2.134,0,4.767,0h40.466C47.866,0,50,2.134,50,4.767V45.233z" fill="#2899C0"/><path d="M50,30.011L36.254,16.266l-2.017,3.776l-1.525,1.239l0.593,0.572l-0.085,0.498l-1.006-0.498l-5.578-5.587     l-1.212,3.606l-2.33,2.436l-6.076-6.043l-1.403,0.831l-2.14,1.959l0.572,0.572l0.763,1.219l-2.244,0.812l0.909,0.925l0.551,1.144     l-0.364,9.921L30.01,50h15.223C47.866,50,50,47.866,50,45.233V30.011z" opacity="0.2"/><g><g><path d="M13.475,33.151c0,0.421,0.341,0.763,0.763,0.763h2.288c0.421,0,0.763-0.341,0.763-0.763V22.468h-3.813       V33.151z" fill="#FFFFFF"/><path d="M17.288,16.849c0-0.421-0.341-0.763-0.763-0.763h-2.288c-0.421,0-0.763,0.341-0.763,0.763v2.208h3.813       V16.849z" fill="#FFFFFF"/><path d="M17.786,19.629h-0.498h-3.813h-0.498c-0.263,0-0.477,0.214-0.477,0.477v1.314       c0,0.263,0.214,0.477,0.477,0.477h0.498h3.813h0.498c0.263,0,0.477-0.214,0.477-0.477v-1.314       C18.263,19.843,18.049,19.629,17.786,19.629z" fill="#FFFFFF"/></g><g><path d="M23.093,33.151c0,0.421,0.341,0.763,0.763,0.763h2.288c0.421,0,0.763-0.341,0.763-0.763v-2.738h-3.813       V33.151z" fill="#FFFFFF"/><path d="M26.907,16.849c0-0.421-0.341-0.763-0.763-0.763h-2.288c-0.421,0-0.763,0.341-0.763,0.763v10.153h3.813       V16.849z" fill="#FFFFFF"/><path d="M27.405,27.574h-0.498h-3.813h-0.498c-0.263,0-0.477,0.214-0.477,0.477v1.314       c0,0.263,0.214,0.477,0.477,0.477h0.498h3.813h0.498c0.263,0,0.477-0.214,0.477-0.477V28.05       C27.881,27.788,27.668,27.574,27.405,27.574z" fill="#FFFFFF"/></g><g><path d="M36.525,16.849c0-0.421-0.341-0.763-0.763-0.763h-2.288c-0.421,0-0.763,0.341-0.763,0.763v4.432h3.813       V16.849z" fill="#FFFFFF"/><path d="M32.712,33.151c0,0.421,0.341,0.763,0.763,0.763h2.288c0.421,0,0.763-0.341,0.763-0.763v-8.459h-3.813       V33.151z" fill="#FFFFFF"/><path d="M37.023,21.853h-0.498h-3.813h-0.498c-0.263,0-0.477,0.214-0.477,0.477v1.314       c0,0.263,0.214,0.477,0.477,0.477h0.498h3.813h0.498c0.263,0,0.477-0.214,0.477-0.477V22.33       C37.5,22.067,37.286,21.853,37.023,21.853z" fill="#FFFFFF"/></g></g></g></g></svg>